<svg width="135" height="15" viewBox="0 0 135 15" fill="none" xmlns="http://www.w3.org/2000/svg">
<path d="M1.83195 14H0.751953V0.487976H9.94395V1.47198H1.83195V6.29598H8.31195V7.25598H1.83195V14Z" fill="black"/>
<path d="M12.3464 14V4.25598H13.2824L13.4264 6.75198C13.5864 6.06398 13.9624 5.47198 14.5544 4.97598C15.1464 4.47998 15.9784 4.23998 17.0504 4.25598H17.5784V5.47998H17.0504C15.9624 5.47998 15.1624 5.65598 14.6504 6.00798C14.1384 6.34398 13.8024 6.79998 13.6424 7.37598C13.4984 7.95198 13.4264 8.59198 13.4264 9.29598V14H12.3464Z" fill="black"/>
<path d="M24.2112 14.24C23.1712 14.24 22.3072 13.992 21.6192 13.496C20.9472 13 20.4432 12.368 20.1072 11.6C19.7712 10.816 19.6112 10.008 19.6272 9.17598C19.6272 8.31198 19.8032 7.50398 20.1552 6.75198C20.5072 5.99998 21.0192 5.39998 21.6912 4.95198C22.3792 4.48798 23.2112 4.25598 24.1872 4.25598C25.4032 4.25598 26.4032 4.65598 27.1872 5.45598C27.9872 6.23998 28.4352 7.29598 28.5312 8.62398C28.5472 8.70398 28.5552 8.79998 28.5552 8.91198C28.5552 9.02398 28.5552 9.12798 28.5552 9.22398H20.6832C20.6832 10.456 20.9872 11.44 21.5952 12.176C22.2032 12.912 23.0752 13.28 24.2112 13.28C25.0272 13.28 25.7312 13.064 26.3232 12.632C26.9312 12.2 27.3072 11.616 27.4512 10.88H28.5312C28.3392 11.872 27.8512 12.68 27.0672 13.304C26.2992 13.928 25.3472 14.24 24.2112 14.24ZM20.7552 8.50398H27.4272C27.4112 8.08798 27.2912 7.62398 27.0672 7.11198C26.8592 6.59998 26.5152 6.15198 26.0352 5.76798C25.5712 5.38398 24.9552 5.19198 24.1872 5.19198C23.1312 5.19198 22.3232 5.51998 21.7632 6.17598C21.2032 6.83198 20.8672 7.60798 20.7552 8.50398Z" fill="black"/>
<path d="M36.3147 14.24C35.3867 14.24 34.5947 14.024 33.9387 13.592C33.2987 13.144 32.8107 12.544 32.4747 11.792C32.1387 11.024 31.9707 10.176 31.9707 9.24798C31.9707 8.30398 32.1387 7.45598 32.4747 6.70398C32.8267 5.95198 33.3227 5.35998 33.9627 4.92798C34.6187 4.47998 35.4107 4.25598 36.3387 4.25598C37.0107 4.25598 37.5707 4.37598 38.0187 4.61598C38.4667 4.83998 38.8267 5.11198 39.0987 5.43198C39.3867 5.73598 39.6027 6.03198 39.7467 6.31998C39.8907 6.59198 39.9787 6.78398 40.0107 6.89598H40.0587L40.0827 0.487976H41.1867V14H40.2747L40.0827 11.624H40.0347C39.9867 11.736 39.8827 11.928 39.7227 12.2C39.5787 12.472 39.3627 12.768 39.0747 13.088C38.7867 13.408 38.4107 13.68 37.9467 13.904C37.4987 14.128 36.9547 14.24 36.3147 14.24ZM36.4587 13.208C37.4507 13.208 38.2907 12.864 38.9787 12.176C39.6667 11.488 40.0107 10.512 40.0107 9.24798C40.0107 8.01598 39.6827 7.05598 39.0267 6.36798C38.3867 5.66398 37.5867 5.31198 36.6267 5.31198C35.8267 5.31198 35.1627 5.50398 34.6347 5.88798C34.1067 6.25598 33.7067 6.74398 33.4347 7.35198C33.1787 7.94398 33.0507 8.57598 33.0507 9.24798C33.0507 9.91998 33.1707 10.56 33.4107 11.168C33.6507 11.776 34.0187 12.272 34.5147 12.656C35.0107 13.024 35.6587 13.208 36.4587 13.208Z" fill="black"/>
<path d="M44.6808 14V4.25598H45.6168L45.7608 6.75198C45.9208 6.06398 46.2968 5.47198 46.8888 4.97598C47.4808 4.47998 48.3128 4.23998 49.3848 4.25598H49.9128V5.47998H49.3848C48.2968 5.47998 47.4968 5.65598 46.9848 6.00798C46.4728 6.34398 46.1368 6.79998 45.9768 7.37598C45.8328 7.95198 45.7608 8.59198 45.7608 9.29598V14H44.6808Z" fill="black"/>
<path d="M53.4211 3.22398C53.1491 3.23998 52.9651 3.16798 52.8691 3.00798C52.7731 2.84798 52.7251 2.65598 52.7251 2.43198C52.7251 2.22398 52.7731 2.04798 52.8691 1.90398C52.9651 1.75998 53.1491 1.68798 53.4211 1.68798C53.6771 1.68798 53.8531 1.75998 53.9491 1.90398C54.0451 2.04798 54.0931 2.22398 54.0931 2.43198C54.0931 2.67198 54.0451 2.86398 53.9491 3.00798C53.8531 3.15198 53.6771 3.22398 53.4211 3.22398ZM52.8451 14V4.25598H53.9251V14H52.8451Z" fill="black"/>
<path d="M58.8723 14.024H57.7683V0.487976H58.8723V9.99198L64.7523 4.25598H66.2163L61.8003 8.50398L66.2883 14.024H64.9203L61.0083 9.27198L58.8723 11.36V14.024Z" fill="black"/>
<path d="M75.3612 14L80.3292 0.487976H82.1292L87.1452 14H85.9932L84.3852 9.55998H78.0972L76.4652 14H75.3612ZM81.2412 0.967976L78.4572 8.59998H84.0252L81.2412 0.967976Z" fill="black"/>
<path d="M93.4403 14.24C92.4163 14.24 91.6323 14.008 91.0883 13.544C90.5443 13.08 90.1683 12.48 89.9603 11.744C89.7683 10.992 89.6723 10.192 89.6723 9.34398V4.25598H90.7523V9.34398C90.7523 10.08 90.8243 10.744 90.9683 11.336C91.1283 11.912 91.4163 12.376 91.8323 12.728C92.2643 13.064 92.8883 13.232 93.7043 13.232C94.4723 13.232 95.0803 13.056 95.5283 12.704C95.9923 12.336 96.3363 11.872 96.5603 11.312C96.7843 10.736 96.9123 10.128 96.9443 9.48798L96.9683 4.25598H98.0723V14H97.1603L96.9683 11.672H96.9203C96.8243 12.008 96.6323 12.376 96.3443 12.776C96.0563 13.176 95.6723 13.52 95.1923 13.808C94.7283 14.096 94.1443 14.24 93.4403 14.24Z" fill="black"/>
<path d="M101.756 14V4.25598H102.692L102.836 6.75198C102.996 6.06398 103.372 5.47198 103.964 4.97598C104.556 4.47998 105.388 4.23998 106.46 4.25598H106.988V5.47998H106.46C105.372 5.47998 104.572 5.65598 104.06 6.00798C103.548 6.34398 103.212 6.79998 103.052 7.37598C102.908 7.95198 102.836 8.59198 102.836 9.29598V14H101.756Z" fill="black"/>
<path d="M113.837 14.24C112.909 14.24 112.117 14.024 111.461 13.592C110.821 13.144 110.333 12.544 109.997 11.792C109.661 11.024 109.493 10.176 109.493 9.24798C109.493 8.30398 109.661 7.45598 109.997 6.70398C110.349 5.95198 110.845 5.35998 111.485 4.92798C112.141 4.47998 112.933 4.25598 113.861 4.25598C114.533 4.25598 115.093 4.37598 115.541 4.61598C115.989 4.83998 116.349 5.11198 116.621 5.43198C116.909 5.73598 117.125 6.03198 117.269 6.31998C117.413 6.59198 117.501 6.78398 117.533 6.89598H117.581L117.605 0.487976H118.709V14H117.797L117.605 11.624H117.557C117.509 11.736 117.405 11.928 117.245 12.2C117.101 12.472 116.885 12.768 116.597 13.088C116.309 13.408 115.933 13.68 115.469 13.904C115.021 14.128 114.477 14.24 113.837 14.24ZM113.981 13.208C114.973 13.208 115.813 12.864 116.501 12.176C117.189 11.488 117.533 10.512 117.533 9.24798C117.533 8.01598 117.205 7.05598 116.549 6.36798C115.909 5.66398 115.109 5.31198 114.149 5.31198C113.349 5.31198 112.685 5.50398 112.157 5.88798C111.629 6.25598 111.229 6.74398 110.957 7.35198C110.701 7.94398 110.573 8.57598 110.573 9.24798C110.573 9.91998 110.693 10.56 110.933 11.168C111.173 11.776 111.541 12.272 112.037 12.656C112.533 13.024 113.181 13.208 113.981 13.208Z" fill="black"/>
<path d="M125.394 14.216C124.498 14.216 123.754 13.992 123.162 13.544C122.57 13.096 122.13 12.496 121.842 11.744C121.554 10.976 121.41 10.128 121.41 9.19998C121.41 8.23998 121.554 7.38398 121.842 6.63198C122.146 5.86398 122.594 5.26398 123.186 4.83198C123.778 4.38398 124.514 4.15998 125.394 4.15998C126.338 4.15998 127.09 4.39198 127.65 4.85598C128.21 5.30398 128.61 5.82398 128.85 6.41598H128.898V4.25598H130.002V14H129.09L128.898 11.984H128.85C128.594 12.576 128.186 13.096 127.626 13.544C127.066 13.992 126.322 14.216 125.394 14.216ZM125.802 13.208C126.826 13.208 127.594 12.856 128.106 12.152C128.618 11.448 128.874 10.472 128.874 9.22398C128.874 7.89598 128.602 6.89598 128.058 6.22398C127.53 5.55198 126.778 5.21598 125.802 5.21598C124.666 5.21598 123.834 5.59998 123.306 6.36798C122.778 7.11998 122.514 8.06398 122.514 9.19998C122.514 10.384 122.786 11.352 123.33 12.104C123.874 12.84 124.698 13.208 125.802 13.208Z" fill="black"/>
<path d="M133.388 14V0.487976H134.492V14H133.388Z" fill="black"/>
</svg>
